<?xml version="1.0" encoding="utf-8"?>
<!-- Generator: Adobe Illustrator 18.1.1, SVG Export Plug-In . SVG Version: 6.00 Build 0)  -->
<svg version="1.1" id="Layer_1" xmlns="http://www.w3.org/2000/svg" xmlns:xlink="http://www.w3.org/1999/xlink" x="0px" y="0px"
	 viewBox="0 0 300 100" enable-background="new 0 0 300 100" xml:space="preserve">
<path fill="#0572BA" d="M157.6,54.5c0,1.4-0.3,2.7-0.9,3.8c-0.6,1.1-1.4,2-2.3,2.7c-1.2,0.9-2.4,1.5-3.7,1.8c-1.3,0.4-3,0.5-5.2,0.5
	h-8.9V34.4h8.2c2.2,0,3.9,0.1,5,0.2c1.1,0.1,2.2,0.5,3.2,1c1.1,0.6,1.9,1.3,2.4,2.2c0.5,0.9,0.8,2,0.8,3.2c0,1.4-0.4,2.6-1.2,3.7
	c-0.8,1.1-1.8,1.9-3.2,2.5v0.2c1.8,0.5,3.3,1.3,4.3,2.6C157.1,51.1,157.6,52.7,157.6,54.5 M151.8,41.5c0-0.7-0.1-1.3-0.4-1.8
	c-0.2-0.5-0.7-0.9-1.2-1.2c-0.7-0.4-1.4-0.6-2.2-0.6c-0.8-0.1-1.9-0.1-3.4-0.1h-3.9v8.5h4.7c1.3,0,2.2-0.1,2.8-0.2
	c0.6-0.1,1.2-0.4,1.9-0.8c0.6-0.4,1.1-0.9,1.3-1.5C151.7,43.1,151.8,42.4,151.8,41.5 M153.3,54.7c0-1.1-0.2-2-0.5-2.7
	c-0.3-0.7-1-1.3-2-1.8c-0.7-0.3-1.4-0.5-2.1-0.6c-0.8-0.1-1.9-0.1-3.3-0.1h-4.7v10.8h3.3c1.8,0,3.2-0.1,4.3-0.2c1-0.2,2-0.5,2.7-1
	c0.8-0.5,1.3-1.1,1.7-1.7C153.1,56.6,153.3,55.7,153.3,54.7"/>
<polygon fill="#0572BA" points="161.7,63.5 161.7,34.4 181.1,34.4 181.1,37.8 165.8,37.8 165.8,45.8 180,45.8 180,49.2 165.8,49.2 
	165.8,60 181.1,60 181.1,63.5 "/>
<path fill="#0572BA" d="M194.2,64c-2.2,0-4.2-0.2-5.7-0.7c-1.6-0.4-3-1-4.4-1.6v-4.8h0.3c1.4,1.2,2.9,2.1,4.6,2.8c1.7,0.7,3.4,1,5,1
	c2.3,0,4-0.4,5.1-1.3c1.2-0.9,1.7-2.1,1.7-3.5c0-1.2-0.3-2.1-0.9-2.8c-0.6-0.7-1.6-1.3-2.9-1.6c-1-0.3-1.8-0.5-2.6-0.6
	c-0.8-0.2-1.8-0.4-3-0.7c-1.1-0.3-2-0.6-2.9-1c-0.8-0.4-1.6-0.9-2.2-1.6c-0.6-0.6-1.1-1.4-1.5-2.3c-0.4-0.9-0.5-1.9-0.5-3
	c0-2.4,1-4.3,2.9-5.9c2-1.6,4.4-2.4,7.5-2.4c1.7,0,3.4,0.2,4.9,0.5c1.5,0.3,3,0.8,4.3,1.4v4.6h-0.3c-1-0.8-2.2-1.6-3.8-2.2
	c-1.5-0.6-3.1-0.9-4.8-0.9c-1.9,0-3.5,0.4-4.6,1.3c-1.2,0.8-1.8,1.9-1.8,3.3c0,1.2,0.3,2.2,1,2.9c0.7,0.7,1.7,1.3,3,1.6
	c0.9,0.2,1.9,0.5,3.2,0.8c1.3,0.3,2.3,0.5,3.1,0.8c2.1,0.6,3.7,1.5,4.7,2.8c1,1.2,1.5,2.8,1.5,4.6c0,1.1-0.2,2.3-0.7,3.4
	c-0.5,1.1-1.2,2-2.1,2.8c-1,0.8-2.1,1.5-3.4,2C197.6,63.8,196.1,64,194.2,64"/>
<polygon fill="#0572BA" points="216.5,63.5 216.5,37.8 206.1,37.8 206.1,34.4 231,34.4 231,37.8 220.6,37.8 220.6,63.5 "/>
<text transform="matrix(1 0 0 1 182.2002 74.8558)" fill="#0572BA" font-family="'Tahoma'" font-size="10.7582">CHISINAU</text>
<path fill="#0572BA" d="M121.1,63.5l-6.8-3.9H96.5l-6.8,3.9c6.5,11.3,26,29.9,47.1,31.5C129.5,90.9,117.8,76.1,121.1,63.5"/>
<path fill="#FAA51D" d="M106.6,42.2L106.6,42.2l-0.1-0.2L106.6,42.2z M126,5c0.1,8.4-6.9,26-19.4,29.4l0,7.9l8.9,15.4l6.8,3.9
	C128.8,50.3,135.1,24.1,126,5"/>
<path fill="#76C043" d="M95.4,57.6L95.4,57.6l-0.1,0.2L95.4,57.6z M104.3,34.4c-13.1,0-38.9,7.6-50.8,25.1
	c7.3-4.3,25.9-7.1,35.1,2.1l6.8-3.9l8.9-15.4L104.3,34.4z"/>
<path fill="#0572BA" d="M101.3,53.1c0-2.3,1.9-4.2,4.2-4.2c2.3,0,4.2,1.9,4.2,4.2c0,2.3-1.9,4.2-4.2,4.2
	C103.1,57.3,101.3,55.5,101.3,53.1"/>
</svg>
